<?xml version="1.0" standalone="no"?>
<!DOCTYPE svg PUBLIC "-//W3C//DTD SVG 20010904//EN"
 "http://www.w3.org/TR/2001/REC-SVG-20010904/DTD/svg10.dtd">
<svg version="1.0" xmlns="http://www.w3.org/2000/svg"
 width="507.000000pt" height="492.000000pt" viewBox="0 0 507.000000 492.000000"
 preserveAspectRatio="xMidYMid meet">

<g transform="translate(0.000000,492.000000) scale(0.100000,-0.100000)"
fill="#000000" stroke="none">
<path d="M2472 4285 c3 -21 38 -35 38 -15 0 6 -4 9 -9 5 -6 -3 -15 3 -21 12
-10 17 -11 16 -8 -2z"/>
<path d="M2198 4263 c7 -3 16 -2 19 1 4 3 -2 6 -13 5 -11 0 -14 -3 -6 -6z"/>
<path d="M2808 4245 c-3 -14 -1 -25 3 -25 5 0 9 11 9 25 0 14 -2 25 -4 25 -2
0 -6 -11 -8 -25z"/>
<path d="M2173 4243 c9 -2 25 -2 35 0 9 3 1 5 -18 5 -19 0 -27 -2 -17 -5z"/>
<path d="M2678 4243 c7 -3 16 -2 19 1 4 3 -2 6 -13 5 -11 0 -14 -3 -6 -6z"/>
<path d="M3058 4153 c7 -3 16 -2 19 1 4 3 -2 6 -13 5 -11 0 -14 -3 -6 -6z"/>
<path d="M3157 4093 c3 -7 6 -13 8 -13 2 0 5 6 8 13 3 8 -1 14 -8 14 -7 0 -11
-6 -8 -14z"/>
<path d="M2355 4070 c-29 -7 -29 -8 10 -9 22 0 90 -12 150 -25 61 -13 148 -27
195 -29 47 -3 76 -4 65 -1 -11 2 -36 9 -55 14 -19 5 -62 12 -95 15 -33 3 -73
7 -90 9 -16 2 -50 10 -75 19 -49 18 -59 19 -105 7z"/>
<path d="M2094 4051 c-17 -5 -42 -15 -55 -24 -13 -10 -33 -17 -44 -17 -11 -1
-33 -7 -50 -15 -30 -15 -30 -15 15 -9 25 4 67 15 95 26 29 11 88 22 140 26 65
4 82 8 60 13 -40 9 -123 9 -161 0z"/>
<path d="M2298 4053 c7 -3 16 -2 19 1 4 3 -2 6 -13 5 -11 0 -14 -3 -6 -6z"/>
<path d="M3278 4043 c7 -3 16 -2 19 1 4 3 -2 6 -13 5 -11 0 -14 -3 -6 -6z"/>
<path d="M3276 4008 c7 -11 34 -10 34 1 0 6 -9 9 -19 8 -11 0 -17 -5 -15 -9z"/>
<path d="M3335 4000 c-16 -7 -17 -9 -3 -9 9 -1 20 4 23 9 7 11 7 11 -20 0z"/>
<path d="M2818 3993 c7 -3 16 -2 19 1 4 3 -2 6 -13 5 -11 0 -14 -3 -6 -6z"/>
<path d="M2856 3991 c-3 -4 12 -18 33 -29 42 -24 56 -27 47 -13 -10 16 -75 50
-80 42z"/>
<path d="M3540 3969 c0 -5 5 -7 10 -4 6 3 10 8 10 11 0 2 -4 4 -10 4 -5 0 -10
-5 -10 -11z"/>
<path d="M2954 3933 c4 -5 11 -8 14 -9 28 -3 71 -20 94 -36 21 -15 26 -16 22
-4 -8 20 -78 56 -111 56 -14 0 -23 -3 -19 -7z"/>
<path d="M1694 3838 l-29 -33 33 29 c30 28 37 36 29 36 -2 0 -16 -15 -33 -32z"/>
<path d="M3135 3833 c22 -22 60 -51 85 -66 52 -30 215 -194 249 -249 12 -21
25 -38 27 -38 4 0 -7 21 -42 82 -18 30 -53 68 -63 68 -5 0 -12 8 -15 18 -3 9
-19 25 -36 34 -16 9 -30 23 -30 31 0 14 -69 76 -100 90 -8 4 -28 16 -45 27
-62 40 -69 41 -30 3z"/>
<path d="M1293 3683 c0 -9 4 -10 14 -2 7 6 13 12 13 14 0 1 -6 2 -13 2 -8 0
-14 -6 -14 -14z"/>
<path d="M1228 3643 c7 -3 16 -2 19 1 4 3 -2 6 -13 5 -11 0 -14 -3 -6 -6z"/>
<path d="M1409 3573 l-24 -28 28 24 c25 23 32 31 24 31 -2 0 -14 -12 -28 -27z"/>
<path d="M2532 3543 c-34 -17 -51 -31 -48 -39 3 -8 -5 -18 -17 -24 -21 -11
-21 -11 -3 4 11 9 15 16 9 16 -6 0 -22 -9 -36 -20 -14 -11 -30 -20 -36 -20 -6
0 -11 -5 -11 -10 0 -6 -6 -10 -12 -9 -30 4 -48 -3 -77 -27 -17 -14 -31 -23
-31 -20 0 12 -113 -55 -133 -79 -12 -15 -34 -39 -49 -55 -16 -16 -28 -33 -28
-39 0 -6 -9 -11 -19 -11 -11 0 -21 -9 -25 -22 -3 -13 -16 -34 -29 -48 -13 -14
-26 -33 -30 -42 -3 -10 -11 -18 -16 -18 -5 0 -12 -13 -16 -30 -4 -16 -10 -32
-15 -35 -12 -7 -40 -65 -40 -82 0 -8 5 -11 10 -8 6 3 10 4 10 1 0 -9 -44 -51
-50 -49 -3 1 -6 -7 -6 -18 0 -10 4 -19 8 -19 4 0 8 -4 8 -10 0 -5 -7 -10 -15
-10 -8 0 -15 -5 -15 -12 0 -22 -35 -87 -47 -88 -7 0 -13 -7 -13 -15 0 -8 -9
-15 -20 -15 -11 0 -20 -4 -20 -9 0 -5 -8 -8 -17 -7 -12 1 -17 -5 -15 -18 2
-10 -1 -22 -8 -26 -7 -5 -7 -14 3 -34 11 -21 16 -23 20 -11 4 8 13 15 22 15
17 0 20 -16 5 -25 -5 -3 -10 -20 -10 -37 0 -42 -32 -138 -46 -138 -18 0 -24
-61 -7 -67 16 -6 73 44 73 64 0 17 17 17 24 1 3 -7 4 -4 1 7 -4 15 3 24 25 34
21 9 28 17 22 25 -13 15 -7 42 13 62 10 10 14 27 11 45 -4 26 -1 29 17 26 42
-5 45 -13 40 -94 -3 -43 -8 -80 -12 -83 -4 -3 -7 -21 -8 -40 -1 -42 -9 -78
-21 -94 -10 -14 -33 -82 -31 -93 1 -4 1 -10 0 -13 -2 -3 -4 -24 -6 -48 -3 -25
-14 -56 -30 -76 -14 -18 -25 -38 -25 -45 0 -7 -5 -9 -12 -5 -7 4 -8 3 -4 -4 4
-7 -6 -26 -23 -44 -17 -18 -31 -36 -31 -40 0 -4 -6 -6 -12 -4 -7 1 -10 1 -5
-1 12 -8 8 -40 -8 -53 -18 -15 -20 1 -3 18 9 9 6 11 -10 7 -12 -2 -29 -11 -38
-19 -19 -20 -38 -20 -58 -1 -19 19 -32 19 -40 -1 -10 -25 4 -37 20 -17 9 12
13 13 14 5 0 -7 5 -10 11 -6 8 4 9 -1 4 -17 -4 -13 -14 -28 -21 -32 -19 -11
-18 -28 1 -21 8 4 15 1 15 -6 0 -6 -9 -14 -20 -17 -15 -4 -20 -13 -19 -37 0
-17 3 -24 6 -16 10 26 50 69 58 62 4 -4 4 4 0 18 -18 59 -18 56 -3 40 18 -21
51 -19 66 5 11 18 12 18 6 -7 -4 -18 -2 -28 5 -28 11 0 15 12 12 41 -2 19 26
21 33 2 3 -7 1 -13 -5 -13 -6 0 -7 -5 -4 -10 4 -6 11 -8 16 -5 21 14 7 -25
-21 -53 -16 -18 -30 -36 -30 -42 0 -5 -5 -9 -11 -8 -6 2 -14 -3 -16 -9 -3 -7
2 -13 11 -13 16 0 15 -6 -16 -60 -4 -8 -11 -22 -14 -30 -17 -43 -40 -80 -50
-80 -17 0 -51 -34 -47 -47 4 -10 -33 -29 -48 -25 -4 1 -14 -13 -23 -31 -8 -18
-16 -26 -16 -19 0 6 -5 12 -11 12 -5 0 -7 -4 -4 -10 3 -5 2 -10 -3 -10 -14 0
-24 29 -15 43 4 7 0 7 -9 -1 -14 -11 -17 -10 -23 7 -3 12 -12 21 -18 21 -7 0
0 8 15 18 29 19 25 48 -5 36 -10 -3 -17 -1 -17 6 0 6 -5 8 -10 5 -6 -4 -8 -15
-5 -25 3 -10 1 -21 -5 -25 -5 -3 -10 1 -10 9 0 9 -1 16 -3 16 -11 0 -75 -38
-71 -42 3 -3 7 -18 10 -33 4 -21 59 -139 82 -175 2 -2 12 1 22 8 16 9 18 9 14
-2 -5 -12 2 -12 38 -5 23 6 46 15 50 22 7 12 12 13 48 16 12 0 20 8 21 19 0
14 2 14 9 -3 7 -16 9 -17 9 -3 1 9 8 23 16 32 9 8 14 21 13 28 -2 6 3 13 10
14 6 1 13 2 15 4 1 1 10 3 21 5 10 2 24 9 30 16 8 9 7 10 -7 6 -11 -4 -16 -3
-12 3 3 6 12 10 20 10 14 0 29 31 34 70 0 6 8 10 16 10 8 0 15 5 15 10 0 6 6
10 14 10 8 0 17 11 20 25 4 14 11 23 16 20 5 -3 7 1 4 9 -3 9 5 26 20 41 15
15 24 31 20 36 -3 6 0 24 7 41 9 23 10 32 0 37 -9 6 -8 11 3 21 10 7 14 21 10
34 -3 14 1 28 10 35 9 7 13 18 9 24 -3 6 -1 7 5 3 6 -3 15 1 20 10 9 15 11 15
23 -7 7 -13 13 -26 12 -29 -1 -3 -4 -50 -8 -105 -4 -55 -11 -101 -16 -103 -4
-2 -5 -10 -3 -17 3 -8 2 -20 -2 -27 -5 -7 -10 -24 -12 -38 -2 -14 -7 -29 -13
-34 -5 -6 -9 -18 -9 -29 0 -10 -4 -16 -9 -13 -7 5 -37 -70 -33 -86 3 -11 -69
-78 -84 -78 -17 0 -37 -37 -30 -56 4 -11 10 -12 30 -3 20 10 28 9 42 -5 9 -10
20 -14 23 -9 3 4 14 14 23 21 15 12 17 11 13 -7 -2 -12 -7 -26 -10 -31 -3 -6
-2 -10 4 -10 6 0 8 -6 5 -14 -3 -8 -12 -12 -20 -9 -14 5 -19 -8 -8 -20 9 -9
54 23 54 39 0 32 18 10 23 -28 3 -24 11 -44 16 -46 6 -2 11 -8 11 -14 0 -26
40 -65 69 -66 16 0 38 -5 49 -11 22 -12 158 -41 187 -40 11 0 -9 10 -45 23
-36 12 -74 28 -85 34 -19 11 -19 11 3 12 12 0 22 4 22 8 0 13 30 10 30 -2 0
-6 5 -3 11 6 5 10 16 15 24 12 10 -4 15 0 15 11 0 14 8 16 50 11 28 -3 50 -1
50 4 0 5 8 6 17 3 12 -5 15 -2 10 10 -4 11 -2 14 9 10 7 -3 14 -1 14 4 0 5 13
8 28 5 26 -3 31 1 50 45 12 26 21 41 22 33 0 -9 5 -7 16 8 9 13 22 21 29 18 7
-2 16 2 19 10 3 9 1 12 -4 9 -16 -10 -36 43 -22 57 9 9 12 5 12 -18 1 -28 1
-28 15 -10 15 20 15 20 15 0 0 -26 19 -44 45 -44 12 0 26 -5 31 -10 12 -12 44
-3 44 12 0 5 5 6 10 3 6 -4 7 -11 3 -18 -3 -6 8 -1 25 12 32 23 42 54 20 67
-7 5 -8 2 -3 -7 6 -11 5 -12 -5 -2 -11 11 -10 17 9 36 21 24 24 59 5 88 -4 7
-3 9 2 6 6 -3 8 10 5 31 -3 30 -5 33 -12 17 -7 -19 -8 -19 -8 3 -1 12 4 22 10
22 6 0 8 9 4 21 -6 18 -4 21 13 17 16 -5 28 5 52 41 18 26 44 52 59 59 20 9
26 18 25 42 -2 48 -3 52 -14 45 -6 -4 -10 -3 -9 2 4 21 -2 43 -15 56 -8 8 -13
23 -11 33 1 10 -3 29 -11 41 -13 21 -12 24 15 38 17 8 36 15 44 15 8 0 17 6
19 13 8 21 0 81 -11 85 -24 8 -9 32 27 41 53 15 56 15 82 -21 l24 -32 9 28 c8
23 6 30 -14 44 -13 9 -35 15 -49 14 -14 -1 -45 8 -70 20 l-45 23 -3 62 -3 63
29 -6 c34 -7 50 9 32 32 -10 11 -16 12 -26 3 -11 -9 -14 -8 -14 5 0 8 -22 28
-50 44 -38 22 -47 31 -38 40 9 9 9 12 1 12 -7 0 -15 -5 -18 -10 -4 -6 -11 -8
-16 -4 -5 3 -26 -5 -46 -17 -30 -19 -36 -20 -30 -6 4 10 2 17 -5 17 -6 0 -1 9
12 20 13 12 30 18 38 15 9 -3 12 0 9 9 -3 8 1 17 9 20 8 3 14 1 14 -4 0 -6 5
-10 11 -10 5 0 8 4 4 9 -3 5 -1 12 5 16 5 3 10 18 10 32 0 15 -3 24 -6 20 -4
-3 -13 1 -22 10 -14 14 -14 16 2 25 18 10 14 46 -8 60 -8 6 -8 8 0 8 15 0 23
44 12 63 -5 10 -4 20 5 28 7 7 11 25 9 41 -3 23 -8 27 -27 24 -16 -3 -37 9
-76 45 -30 27 -57 49 -61 49 -4 0 -10 10 -14 22 -5 18 -8 19 -18 7 -8 -10 -34
-14 -101 -13 -55 0 -93 -3 -97 -10 -6 -8 -11 -6 -18 4 -8 13 -15 10 -40 -17
-17 -18 -37 -33 -44 -33 -15 0 -13 44 3 64 6 7 8 15 6 18 -3 3 6 3 21 0 19 -3
25 -1 20 7 -4 6 -14 11 -22 11 -8 0 -14 5 -14 11 0 6 6 9 14 6 8 -3 17 -1 19
6 3 9 7 9 19 0 8 -7 17 -10 21 -7 3 3 11 -4 17 -16 8 -15 15 -19 22 -12 6 6
17 8 24 5 8 -3 14 0 14 6 0 6 -7 11 -15 11 -13 0 -13 3 -3 13 10 12 15 12 27
0 7 -8 20 -12 29 -8 8 3 21 0 29 -7 11 -9 16 -9 24 3 5 8 9 9 9 2 0 -18 32
-21 61 -7 31 15 46 44 23 44 -8 0 -14 7 -12 16 2 10 -3 19 -11 22 -8 2 -11 0
-8 -5 3 -5 0 -10 -8 -10 -21 0 -19 10 5 25 11 7 20 18 20 25 0 8 -4 7 -10 -3
-7 -11 -10 -11 -10 -2 0 7 -10 16 -22 21 -18 7 -25 4 -34 -11 -7 -14 -23 -21
-48 -23 -39 -2 -47 8 -18 24 10 6 12 11 4 11 -7 0 -11 4 -8 8 3 5 24 9 47 10
23 1 47 6 54 12 6 5 15 7 19 3 3 -4 5 3 3 15 -5 30 -22 48 -32 31 -5 -8 -4
-10 3 -5 8 5 12 0 12 -13 0 -11 -5 -23 -11 -26 -10 -7 -38 22 -39 40 0 6 5 3
11 -5 9 -13 10 -13 6 0 -2 8 -14 15 -27 15 -13 0 -25 6 -27 13 -3 6 2 12 10
12 8 0 17 7 21 15 3 8 15 15 26 15 12 0 18 5 15 10 -3 6 1 10 9 10 9 0 24 8
34 18 34 33 143 85 155 73 6 -6 18 -11 27 -11 39 0 195 -60 257 -99 116 -72
154 -150 177 -352 9 -79 21 -178 27 -219 18 -136 11 -274 -21 -390 -5 -19 -19
-71 -30 -115 -33 -123 -59 -184 -112 -261 -26 -39 -48 -77 -48 -86 0 -8 -3
-18 -6 -21 -4 -3 -8 -44 -10 -89 -8 -187 -14 -255 -25 -286 -7 -20 -10 -63 -7
-105 7 -94 41 -170 100 -222 86 -76 123 -105 135 -105 6 0 20 -11 30 -25 11
-16 29 -26 48 -27 17 -1 35 -5 40 -9 6 -4 24 -13 39 -19 23 -8 27 -8 20 2 -11
15 -11 74 -1 84 15 15 6 24 -12 12 -15 -9 -23 -9 -35 1 -17 15 -22 36 -6 26 6
-3 10 -2 10 4 0 5 -16 15 -35 22 -19 7 -35 17 -35 21 0 4 -7 8 -15 8 -8 0 -15
4 -15 9 0 6 -9 8 -19 6 -14 -2 -23 5 -31 26 -7 16 -10 32 -8 35 7 7 38 -7 38
-17 0 -5 5 -9 10 -9 13 0 13 37 0 45 -5 3 -7 12 -4 19 3 8 -4 16 -15 19 -12 3
-21 10 -21 17 0 6 5 8 10 5 6 -4 10 5 10 19 0 38 -1 41 -11 38 -9 -2 -13 13
-10 32 1 5 -7 6 -18 3 -17 -4 -19 -2 -12 11 13 25 3 40 -23 35 -27 -5 -33 1
-40 41 -3 16 -7 31 -10 33 -8 8 32 46 42 39 12 -7 10 27 -2 35 -4 4 -3 10 3
13 6 4 14 0 17 -8 8 -21 24 -21 24 0 0 8 4 13 9 10 5 -3 14 1 21 9 10 12 8 13
-9 10 -12 -2 -19 0 -16 6 4 5 0 9 -7 9 -10 0 -11 2 0 8 8 5 10 16 6 27 -5 12
-4 16 3 12 12 -8 26 20 18 34 -4 5 1 6 9 3 8 -3 12 -12 9 -21 -4 -11 -2 -14 8
-11 8 3 22 -1 32 -10 15 -14 17 -13 17 1 0 11 7 15 22 12 20 -4 21 -3 6 11 -9
9 -28 17 -41 17 -18 0 -24 4 -20 14 3 8 12 12 20 9 9 -4 17 1 20 14 3 11 12
20 19 20 19 0 18 7 -6 32 -18 20 -18 22 -2 35 13 10 14 13 2 11 -10 -2 -16 7
-18 26 -3 21 0 27 11 23 8 -3 14 1 14 10 0 10 -7 13 -24 8 -16 -4 -23 -1 -23
9 0 24 12 46 21 40 5 -3 9 2 9 10 0 8 -5 18 -12 22 -7 4 -8 3 -4 -4 4 -7 2
-12 -3 -12 -16 0 -13 14 7 36 19 22 28 49 12 39 -5 -3 -11 -3 -11 2 -6 36 -5
54 4 60 6 3 7 1 3 -5 -4 -7 -2 -12 3 -12 13 0 14 6 15 82 1 32 -2 58 -6 58 -8
0 1 150 11 187 5 16 13 27 20 26 6 -2 11 3 11 11 0 8 5 16 10 18 6 2 11 12 11
23 -1 11 -1 38 -1 59 0 22 -4 44 -9 50 -15 21 -22 61 -27 161 -3 54 -11 122
-19 150 -33 115 -46 203 -36 246 5 21 6 41 3 44 -4 3 -1 9 6 14 8 5 4 18 -15
46 -15 22 -25 41 -23 42 3 1 -2 11 -10 20 -8 10 -16 30 -18 43 -5 42 -43 111
-69 123 -13 6 -22 16 -19 24 3 7 2 12 -2 11 -4 -1 -20 4 -37 11 -16 7 -65 17
-109 22 -44 6 -85 13 -91 18 -5 4 -37 18 -70 31 -33 13 -62 26 -65 29 -3 3
-19 13 -37 22 -22 12 -34 14 -42 6 -8 -8 -11 -8 -11 1 0 18 -18 14 -78 -15z
m-105 -456 c0 -7 -9 -14 -19 -14 -10 -1 -18 3 -18 8 0 6 5 7 10 4 6 -3 10 -1
10 4 0 6 4 11 8 11 5 0 9 -6 9 -13z m-34 -48 c-6 -6 -9 -18 -6 -27 5 -11 3
-13 -6 -7 -10 5 -11 2 -6 -14 5 -17 3 -20 -10 -15 -11 5 -15 14 -11 28 3 11 6
25 6 29 0 5 4 6 9 2 5 -3 12 -1 16 5 3 5 9 10 13 10 3 0 1 -5 -5 -11z m-43
-83 c0 -21 -17 -39 -24 -27 -4 6 -11 9 -15 6 -5 -2 -6 6 -4 19 4 17 10 22 24
19 10 -3 19 -10 19 -17z m-395 -8 c-2 -7 -7 -40 -10 -73 -14 -148 -32 -217
-59 -221 -12 -2 -16 2 -12 12 3 8 -1 14 -9 14 -9 0 -15 9 -15 23 0 17 -2 19
-10 7 -7 -12 -9 -10 -7 7 0 12 4 20 8 17 12 -7 18 11 9 26 -5 9 -2 23 9 39 10
15 16 32 13 39 -2 8 6 23 18 34 12 11 19 26 16 34 -3 8 -1 14 4 14 6 0 10 6
10 14 0 8 8 17 18 19 9 3 18 5 19 6 1 0 0 -5 -2 -11z m412 -10 c-3 -8 -6 -5
-6 6 -1 11 2 17 5 13 3 -3 4 -12 1 -19z m-172 -58 c3 -5 1 -10 -4 -10 -6 0
-11 5 -11 10 0 6 2 10 4 10 3 0 8 -4 11 -10z m-412 -305 c-5 -13 -23 -22 -23
-11 0 15 14 35 21 31 4 -3 6 -12 2 -20z m794 -127 c-3 -8 -6 -5 -6 6 -1 11 2
17 5 13 3 -3 4 -12 1 -19z m-86 -258 c5 -3 6 -15 3 -27 -5 -18 -9 -20 -25 -10
-13 8 -15 14 -7 24 6 8 8 16 4 20 -3 3 -6 1 -6 -5 0 -7 -5 -12 -12 -12 -6 0
-3 9 8 21 13 15 20 17 23 7 2 -7 8 -15 12 -18z m-91 -4 c0 -2 -8 -10 -17 -17
-16 -13 -17 -12 -4 4 13 16 21 21 21 13z m-490 -860 c0 -3 -4 -8 -10 -11 -5
-3 -10 -1 -10 4 0 6 5 11 10 11 6 0 10 -2 10 -4z m-34 -39 c-2 -13 -8 -32 -14
-43 -10 -17 -11 -16 -12 12 0 16 5 35 12 42 16 16 17 16 14 -11z m-96 -47 c0
-5 -5 -10 -11 -10 -5 0 -7 5 -4 10 3 6 8 10 11 10 2 0 4 -4 4 -10z m1350 -146
c0 -17 -22 -14 -28 4 -2 7 3 12 12 12 9 0 16 -7 16 -16z"/>
<path d="M3590 3370 c13 -23 20 -26 20 -6 0 8 -7 16 -15 20 -13 4 -14 2 -5
-14z"/>
<path d="M3613 3330 c21 -54 95 -229 105 -245 16 -28 15 -12 -3 27 -8 18 -28
68 -45 111 -16 43 -37 88 -46 100 -9 12 -14 15 -11 7z"/>
<path d="M2478 3133 c7 -3 16 -2 19 1 4 3 -2 6 -13 5 -11 0 -14 -3 -6 -6z"/>
<path d="M2535 3130 c-3 -5 1 -10 9 -10 9 0 16 5 16 10 0 6 -4 10 -9 10 -6 0
-13 -4 -16 -10z"/>
<path d="M3730 3051 c0 -6 4 -13 10 -16 6 -3 7 1 4 9 -7 18 -14 21 -14 7z"/>
<path d="M1101 3004 c0 -11 3 -14 6 -6 3 7 2 16 -1 19 -3 4 -6 -2 -5 -13z"/>
<path d="M3760 2988 c0 -9 41 -78 46 -78 3 0 -2 12 -10 28 -21 37 -36 58 -36
50z"/>
<path d="M4030 2957 c0 -5 5 -17 10 -28 8 -15 20 -19 53 -17 l42 1 -37 4 c-24
3 -43 12 -53 26 -8 12 -15 18 -15 14z"/>
<path d="M3300 2842 c0 -27 10 -52 21 -52 15 0 10 47 -6 60 -12 10 -15 9 -15
-8z"/>
<path d="M2843 2832 c-44 -24 -68 -62 -38 -62 21 0 19 -17 -5 -47 -45 -58 -11
-150 64 -171 101 -29 128 -23 194 41 44 43 52 71 27 103 -8 10 -15 30 -15 43
0 18 4 22 20 18 28 -7 25 9 -6 36 -61 53 -177 72 -241 39z m194 -138 c-3 -3
-12 -4 -19 -1 -8 3 -5 6 6 6 11 1 17 -2 13 -5z m34 -21 c13 -16 12 -17 -3 -4
-17 13 -22 21 -14 21 2 0 10 -8 17 -17z m-6 -53 c-3 -5 -13 -10 -21 -10 -8 0
-12 5 -9 10 3 6 13 10 21 10 8 0 12 -4 9 -10z"/>
<path d="M3357 2783 c-4 -3 -7 -11 -7 -17 0 -6 5 -5 12 2 6 6 9 14 7 17 -3 3
-9 2 -12 -2z"/>
<path d="M3856 2760 c4 -19 10 -42 15 -50 11 -18 1 34 -13 65 -5 13 -6 9 -2
-15z"/>
<path d="M3330 2758 c0 -29 15 -45 25 -28 3 5 -1 20 -9 32 l-16 22 0 -26z"/>
<path d="M1021 2723 c-6 -21 -10 -72 -10 -113 l1 -75 13 110 c7 61 11 112 10
113 -2 2 -8 -13 -14 -35z"/>
<path d="M4108 2663 c7 -3 16 -2 19 1 4 3 -2 6 -13 5 -11 0 -14 -3 -6 -6z"/>
<path d="M3896 2635 c14 -58 24 -83 18 -40 -3 22 -10 47 -15 55 -6 10 -7 5 -3
-15z"/>
<path d="M3921 2540 c0 -8 4 -22 9 -30 12 -18 12 -2 0 25 -6 13 -9 15 -9 5z"/>
<path d="M4120 2480 c0 -16 4 -30 8 -30 5 0 7 14 4 30 -2 17 -6 30 -8 30 -2 0
-4 -13 -4 -30z"/>
<path d="M3941 2474 c0 -11 3 -14 6 -6 3 7 2 16 -1 19 -3 4 -6 -2 -5 -13z"/>
<path d="M3952 2420 c0 -14 2 -19 5 -12 2 6 2 18 0 25 -3 6 -5 1 -5 -13z"/>
<path d="M2900 2314 c0 -9 5 -14 12 -12 18 6 21 28 4 28 -9 0 -16 -7 -16 -16z"/>
<path d="M2915 2289 c-9 -14 -2 -20 14 -10 8 6 9 11 3 15 -6 3 -14 1 -17 -5z"/>
<path d="M985 2215 c-4 -42 -5 -78 -3 -81 3 -2 8 30 12 72 4 42 5 78 2 81 -2
2 -7 -30 -11 -72z"/>
<path d="M3000 2280 c0 -8 -9 -10 -25 -6 -15 4 -25 2 -25 -4 0 -6 -4 -8 -10
-5 -5 3 -10 1 -10 -5 0 -6 10 -10 22 -8 15 2 23 -2 23 -12 0 -8 7 -15 15 -15
8 0 18 -4 21 -9 13 -17 39 3 39 29 0 15 -4 24 -9 20 -5 -3 -17 2 -25 11 -10
10 -16 11 -16 4z"/>
<path d="M3282 2187 c11 -167 30 -294 44 -294 7 0 11 4 9 8 -3 4 3 10 13 14
16 6 16 7 0 19 -10 7 -15 16 -11 19 3 4 0 7 -8 7 -10 1 -8 5 5 15 14 11 20 28
21 60 0 25 -2 45 -5 45 -3 0 -5 12 -6 28 -2 54 -9 82 -20 86 -7 3 -10 14 -7
25 3 13 1 21 -6 21 -7 0 -11 10 -9 21 2 14 -3 23 -12 24 -13 2 -14 -12 -8 -98z"/>
<path d="M4145 2109 c-4 -6 -5 -12 -2 -15 2 -3 7 2 10 11 7 17 1 20 -8 4z"/>
<path d="M1592 2055 c-6 -11 -12 -14 -12 -7 0 6 -4 12 -10 12 -5 0 -7 -7 -4
-15 4 -10 0 -15 -12 -15 -17 -1 -17 -2 -2 -10 10 -6 14 -18 11 -30 -6 -24 22
-28 31 -4 4 10 2 13 -7 9 -6 -4 -3 2 9 12 15 13 19 25 14 43 -6 24 -6 24 -18
5z"/>
<path d="M1027 1885 c3 -33 7 -62 9 -64 7 -8 2 63 -7 94 -5 20 -6 9 -2 -30z"/>
<path d="M1535 1911 c-3 -5 -2 -12 3 -15 5 -3 9 1 9 9 0 17 -3 19 -12 6z"/>
<path d="M3310 1871 c0 -6 4 -13 10 -16 6 -3 7 1 4 9 -7 18 -14 21 -14 7z"/>
<path d="M1041 1794 c0 -11 3 -14 6 -6 3 7 2 16 -1 19 -3 4 -6 -2 -5 -13z"/>
<path d="M1486 1775 c-9 -23 -8 -25 9 -25 17 0 19 9 6 28 -7 11 -10 10 -15 -3z"/>
<path d="M1051 1754 c0 -11 3 -14 6 -6 3 7 2 16 -1 19 -3 4 -6 -2 -5 -13z"/>
<path d="M1543 1695 c0 -8 4 -15 9 -15 4 0 8 4 8 9 0 6 -4 12 -8 15 -5 3 -9
-1 -9 -9z"/>
<path d="M1416 1665 c-4 -15 -16 -27 -30 -31 -15 -3 -23 -11 -20 -19 3 -7 1
-16 -5 -20 -6 -3 -11 -11 -11 -16 0 -5 9 -1 21 10 12 11 28 17 37 14 10 -4 13
-2 8 5 -4 7 -1 15 8 18 9 3 13 11 9 17 -4 6 -1 7 6 2 8 -4 10 -17 6 -32 -4
-18 -2 -23 6 -17 9 5 10 2 6 -9 -4 -11 -2 -14 8 -11 8 3 11 12 8 20 -3 8 0 14
7 14 6 0 8 5 4 12 -4 6 -3 8 2 5 6 -3 16 -2 24 4 11 6 12 9 2 9 -7 0 -11 4 -8
9 3 5 -6 9 -21 9 -14 0 -30 7 -35 16 -13 23 -25 20 -32 -9z"/>
<path d="M1532 1661 c-8 -4 -10 -15 -6 -26 7 -17 8 -16 16 5 10 27 7 32 -10
21z"/>
<path d="M1584 1608 c0 -10 3 -18 7 -18 4 0 9 8 11 18 3 10 0 19 -6 19 -7 0
-12 -9 -12 -19z"/>
<path d="M1400 1556 c0 -2 7 -7 16 -10 8 -3 12 -2 9 4 -6 10 -25 14 -25 6z"/>
<path d="M3180 1490 c0 -5 5 -10 11 -10 5 0 7 5 4 10 -3 6 -8 10 -11 10 -2 0
-4 -4 -4 -10z"/>
<path d="M3210 1488 c0 -12 38 -10 45 2 4 6 -5 9 -19 8 -15 -1 -26 -6 -26 -10z"/>
<path d="M3141 1414 c0 -11 3 -14 6 -6 3 7 2 16 -1 19 -3 4 -6 -2 -5 -13z"/>
<path d="M1172 1379 c6 -16 12 -28 14 -26 5 5 -13 57 -20 57 -3 0 0 -14 6 -31z"/>
<path d="M1196 1327 c3 -10 9 -15 12 -12 3 3 0 11 -7 18 -10 9 -11 8 -5 -6z"/>
<path d="M1463 1253 c0 -9 4 -10 14 -2 7 6 13 12 13 14 0 1 -6 2 -13 2 -8 0
-14 -6 -14 -14z"/>
<path d="M2700 1260 c0 -5 5 -10 11 -10 5 0 7 5 4 10 -3 6 -8 10 -11 10 -2 0
-4 -4 -4 -10z"/>
<path d="M1655 1201 c-6 -11 9 -23 19 -14 9 9 7 23 -3 23 -6 0 -12 -4 -16 -9z"/>
<path d="M1590 1181 c0 -6 4 -13 10 -16 6 -3 7 1 4 9 -7 18 -14 21 -14 7z"/>
<path d="M1495 1125 c-22 -13 -48 -25 -57 -25 -24 0 -23 -15 5 -59 21 -35 22
-35 25 -11 5 43 24 70 49 70 14 0 21 -4 18 -10 -4 -6 6 -10 22 -9 27 0 27 1 6
9 -27 11 -30 35 -5 49 16 10 15 10 -3 11 -11 0 -38 -11 -60 -25z"/>
<path d="M2250 958 c0 -4 7 -8 15 -8 8 0 15 4 15 8 0 5 -7 9 -15 9 -8 0 -15
-4 -15 -9z"/>
<path d="M1996 941 c5 -5 32 -12 59 -15 49 -6 50 -6 20 9 -33 16 -95 21 -79 6z"/>
<path d="M2355 940 c11 -5 27 -9 35 -9 9 0 8 4 -5 9 -11 5 -27 9 -35 9 -9 0
-8 -4 5 -9z"/>
<path d="M2190 900 c20 -13 33 -13 25 0 -3 6 -14 10 -23 10 -15 0 -15 -2 -2
-10z"/>
<path d="M3373 904 c-7 -3 -9 -12 -6 -20 4 -10 0 -12 -12 -8 -15 6 -15 5 -4
-15 14 -21 28 -28 30 -13 1 9 5 62 4 61 0 0 -5 -3 -12 -5z"/>
<path d="M1449 882 c6 -12 16 -24 22 -28 8 -4 8 -1 0 14 -6 12 -16 24 -22 28
-8 4 -8 1 0 -14z"/>
<path d="M3401 821 c-1 -8 -8 -11 -20 -8 -23 6 -37 -19 -15 -27 7 -3 36 -8 64
-12 40 -5 50 -4 50 8 0 17 -44 43 -58 34 -6 -3 -13 0 -15 6 -4 10 -6 10 -6 -1z"/>
<path d="M3295 509 c-16 -10 -25 -19 -20 -19 6 0 24 9 40 20 17 11 26 20 20
19 -5 0 -23 -9 -40 -20z"/>
</g>
</svg>
